# xmcd
#
# Track frame offsets:
#	150
#	14290
#	27422
#	41132
#	55935
#	68826
#	84367
#	98577
#	113025
#	125701
#	139229
#	154237
#	169641
#	184879
#
# Disc length: 2643 seconds
#
# Revision: 0
# Processed by: cddbd v1.5.2PL0 Copyright (c) Steve Scherf et al.
# Submitted via: EasyCDDAExtractor 12.0.2.1
#
DISCID=bb0a510e
DTITLE=Judieh and Mel - Sag´ noch einmal "Ich Liebe Dich"
DYEAR=2008
DGENRE=Volksmusik
TTITLE0=Gemeinsam
TTITLE1=Ich möchte ein Leben lang
TTITLE2=Das war so gut
TTITLE3=Ein Herz und ein Seele
TTITLE4=Über allem steht die Liebe
TTITLE5=Es gibt immer einen Weg
TTITLE6=Die Liebe bleibt Sieger
TTITLE7=Wie ein Felsen im Ozean
TTITLE8=Liebe kann alles
TTITLE9=Mit einem Kuss
TTITLE10=Was ich mit dir jetzt erlebe
TTITLE11=Warum will die Welt nur Sieger seh´n
TTITLE12=Uns´re allerschönsten Jahre
TTITLE13=Es lebe die Liebe
EXTD=
EXTT0=
EXTT1=
EXTT2=
EXTT3=
EXTT4=
EXTT5=
EXTT6=
EXTT7=
EXTT8=
EXTT9=
EXTT10=
EXTT11=
EXTT12=
EXTT13=
PLAYORDER=
